<?xml version="1.0" encoding="utf-8"?>
<!-- Generator: Adobe Illustrator 21.1.0, SVG Export Plug-In . SVG Version: 6.00 Build 0)  -->
<svg version="1.1" id="Layer_1" xmlns="http://www.w3.org/2000/svg" xmlns:xlink="http://www.w3.org/1999/xlink" x="0px" y="0px"
	 viewBox="0 0 15 16" style="enable-background:new 0 0 15 16;" xml:space="preserve">
<path d="M12.3,14.6c-0.7,0-1.3-0.6-1.3-1.3c0-0.7,0.6-1.3,1.3-1.3c0.7,0,1.3,0.6,1.3,1.3C13.7,14,13.1,14.6,12.3,14.6z M2.7,9.3
	C1.9,9.3,1.3,8.7,1.3,8s0.6-1.3,1.3-1.3S4,7.3,4,8S3.4,9.3,2.7,9.3z M12.3,1.3c0.7,0,1.3,0.6,1.3,1.3S13.1,4,12.3,4
	C11.6,4,11,3.4,11,2.7S11.6,1.3,12.3,1.3z M12.3,10.7c-0.6,0-1.1,0.2-1.6,0.5L5.2,8.8C5.3,8.5,5.3,8.3,5.3,8c0-0.3-0.1-0.6-0.2-0.9
	l5.2-2.6c0.5,0.5,1.2,0.8,1.9,0.8c1.5,0,2.7-1.2,2.7-2.7C15,1.2,13.8,0,12.3,0c-1.5,0-2.7,1.2-2.7,2.7c0,0.2,0,0.5,0.1,0.7L4.4,6
	C4,5.6,3.3,5.3,2.7,5.3C1.2,5.3,0,6.5,0,8c0,1.5,1.2,2.7,2.7,2.7c0.7,0,1.4-0.3,1.8-0.7l5.4,2.3c-0.1,0.3-0.2,0.7-0.2,1.1
	c0,1.5,1.2,2.7,2.7,2.7c1.5,0,2.7-1.2,2.7-2.7C15,11.8,13.8,10.7,12.3,10.7L12.3,10.7z"/>
</svg>
