<?xml version="1.0" encoding="utf-8"?>
<!-- Generator: Adobe Illustrator 21.1.0, SVG Export Plug-In . SVG Version: 6.00 Build 0)  -->
<svg version="1.1" id="Layer_1" xmlns="http://www.w3.org/2000/svg" xmlns:xlink="http://www.w3.org/1999/xlink" x="0px" y="0px"
	 viewBox="0 0 18 15.6" style="enable-background:new 0 0 18 15.6;" xml:space="preserve">
<path d="M17.9,7.7c-0.4-2.8-2-5.1-4.4-6.5c-2.4-1.4-5.4-1.6-8-0.4C2.9,1.9,1,4.1,0.3,6.8c-0.8,3.1,0.1,6.3,2.4,8.6
	c0.2,0.2,0.4,0.2,0.6,0.2c0.1,0,0.3-0.1,0.4-0.2c0.7-0.7,1.5-1.5,2.2-2.2c1.3-1.3,2.7-2.7,4.1-4.1v2c0,0.9,1.5,0.9,1.5,0V7.3
	c0-0.2-0.1-0.4-0.2-0.5c0,0,0,0,0,0c-0.1-0.1-0.3-0.2-0.5-0.2H7c-0.5,0-0.7,0.4-0.7,0.7S6.5,8,7,8h2l-5.7,5.7C1.4,11.5,1,8.6,2.1,6
	c1.2-2.7,4-4.6,6.9-4.6c3,0,5.8,1.8,6.9,4.6c1.2,2.8,0.6,6.1-1.6,8.3c-0.2,0.2-0.3,0.4-0.2,0.7c0.1,0.3,0.3,0.5,0.6,0.6
	c0.1,0,0.1,0,0.2,0c0.2,0,0.4-0.1,0.5-0.2C17.4,13.3,18.3,10.5,17.9,7.7z"/>
</svg>
