<?xml version="1.0" encoding="utf-8"?>
<!-- Generator: Adobe Illustrator 21.1.0, SVG Export Plug-In . SVG Version: 6.00 Build 0)  -->
<svg version="1.1" id="Layer_1" xmlns="http://www.w3.org/2000/svg" xmlns:xlink="http://www.w3.org/1999/xlink" x="0px" y="0px"
	 viewBox="0 0 20 20" style="enable-background:new 0 0 20 20;" xml:space="preserve">
<path d="M15.4,15.4c-1.5,1.5-3.4,2.3-5.4,2.3s-4-0.8-5.4-2.3C3.1,14,2.3,12.1,2.3,10c0-4.2,3.5-7.7,7.7-7.7s7.7,3.5,7.7,7.7
	C17.7,12.1,16.9,14,15.4,15.4z M10,0C4.5,0,0,4.5,0,10s4.5,10,10,10s10-4.5,10-10S15.5,0,10,0z"/>
<path d="M10,13.2c-1.8,0-3.2-1.4-3.2-3.2S8.2,6.8,10,6.8c1.3,0,2.4,0.8,2.9,1.9h2.4c-0.6-2.4-2.8-4.2-5.3-4.2C7,4.5,4.5,7,4.5,10
	c0,3,2.5,5.5,5.5,5.5c2.6,0,4.7-1.8,5.3-4.2l-2.4,0C12.4,12.4,11.3,13.2,10,13.2L10,13.2z"/>
</svg>
