<?xml version="1.0" encoding="utf-8"?>
<!-- Generator: Adobe Illustrator 21.1.0, SVG Export Plug-In . SVG Version: 6.00 Build 0)  -->
<svg version="1.1" id="Layer_1" xmlns="http://www.w3.org/2000/svg" xmlns:xlink="http://www.w3.org/1999/xlink" x="0px" y="0px"
	 viewBox="0 0 19 19" style="enable-background:new 0 0 19 19;" xml:space="preserve">
<path d="M2.5,17.6c1.8,1.8,4.8,1.8,6.6,0l3.3-3.3c0.9-0.9,1.4-2.1,1.4-3.3c0-1.3-0.5-2.4-1.4-3.3L11,6.2L9.2,8l1.5,1.5
	c0.4,0.4,0.6,0.9,0.6,1.5c0,0.6-0.2,1.1-0.6,1.5l-3.3,3.3c-0.4,0.4-0.9,0.6-1.5,0.6c-0.6,0-1.1-0.2-1.5-0.6l-1.2-1.2
	c-0.4-0.4-0.6-0.9-0.6-1.5c0-0.6,0.2-1.1,0.6-1.5L4.8,10L3,8.1L1.4,9.8C0.4,10.7,0,11.9,0,13.1c0,1.2,0.4,2.4,1.4,3.3L2.5,17.6z"/>
<path d="M6.5,4.7C5.6,5.6,5.1,6.8,5.1,8c0,1.3,0.5,2.4,1.4,3.3L8,12.8L9.8,11L8.3,9.5C7.9,9.1,7.7,8.6,7.7,8c0-0.6,0.2-1.1,0.6-1.5
	l3.3-3.3c0.4-0.4,0.9-0.6,1.5-0.6c0.6,0,1.1,0.2,1.5,0.6l1.2,1.2c0.4,0.4,0.6,0.9,0.6,1.5c0,0.6-0.2,1.1-0.6,1.5L14.2,9l1.8,1.8
	l1.6-1.7c1.8-1.8,1.8-4.8,0-6.6l-1.2-1.2c-1.8-1.8-4.8-1.8-6.6,0L6.5,4.7z"/>
</svg>
